<svg xmlns="http://www.w3.org/2000/svg" viewBox="0 0 32 32" fill="none">
  <rect width="32" height="32" rx="6" fill="#0d1520"/>
  <rect width="32" height="32" rx="6" fill="url(#bg)" opacity="0.6"/>
  <!-- Flame icon -->
  <path d="M16 4C16 4 10 10 10 16C10 19.3 12.7 22 16 22C19.3 22 22 19.3 22 16C22 14.2 21.2 12.6 20 11.4C20 11.4 19.6 14 18 15C18 15 18 11 16 8C16 8 14.8 10.4 14 12C14 12 12 10.6 12 8C12 8 12 7 12 6.8C12 5 14 4 16 4Z" fill="url(#flame)"/>
  <!-- Inner flame highlight -->
  <path d="M16 13C16 13 13.5 15.5 13.5 17.5C13.5 18.9 14.6 20 16 20C17.4 20 18.5 18.9 18.5 17.5C18.5 16.3 17.8 15.3 16.8 14.7C16.8 14.7 16.6 16 16 16.5C16 16.5 16 15 15.2 14C15.2 14 15 13.5 16 13Z" fill="#e0f7fa" opacity="0.7"/>
  <defs>
    <linearGradient id="bg" x1="0" y1="0" x2="32" y2="32">
      <stop offset="0%" stop-color="#0e7490"/>
      <stop offset="100%" stop-color="#0d1520"/>
    </linearGradient>
    <linearGradient id="flame" x1="16" y1="4" x2="16" y2="22" gradientUnits="userSpaceOnUse">
      <stop offset="0%" stop-color="#22d3ee"/>
      <stop offset="60%" stop-color="#0891b2"/>
      <stop offset="100%" stop-color="#0e7490"/>
    </linearGradient>
  </defs>
</svg>
